<svg width="139" height="107" viewBox="0 0 139 107" fill="none" xmlns="http://www.w3.org/2000/svg">
<path d="M84.6224 4.03325C89.1124 1.80918 94.3987 0.451706 99.8116 0.133425C103.468 -0.0816819 106.376 -0.0395031 109.936 0.2804C112.353 0.497454 112.34 0.446836 111.161 4.8528C108.542 14.6442 100.915 23.9097 91.6057 28.6103C84.4562 32.2204 74.6942 33.6399 67.1711 32.163C65.3131 31.7983 65.3083 31.7944 65.3106 30.6228C65.3138 28.9584 66.4276 24.5135 67.384 22.3475C70.9856 14.1916 76.9873 7.81564 84.6224 4.03325Z" fill="#FCD34D"/>
<path fill-rule="evenodd" clip-rule="evenodd" d="M61.6875 16.0017C62.253 15.9834 62.6042 16.6096 62.294 17.0828L61.6143 18.1209C58.7121 22.5456 57.3451 27.2868 57.6826 31.7576C57.9049 34.6991 58.7815 36.6163 60.6612 38.2732C63.9051 41.1327 67.9493 42.239 75.1504 42.2371C82.1425 42.2351 87.1963 41.2393 93.71 38.5799C101.45 35.4201 108.155 30.065 112.284 23.7449C112.925 22.7649 113.486 21.9067 113.533 21.8357C113.676 21.6193 116.93 23.1192 119.629 24.6463C124.506 27.4059 128.105 30.6033 131.511 35.2029C135.019 39.9413 137.347 45.7004 138.42 52.2957C139.232 57.288 139.178 66.2161 138.306 71.1404C137.518 75.5835 135.579 81.6933 133.882 85.0769C131.295 90.2346 126.33 95.7745 121.496 98.9002C116.252 102.291 108.655 104.846 100.353 106.012C93.4428 106.983 77.7627 106.976 70.3848 106C69.8495 105.929 67.517 105.631 65.2012 105.338C60.8265 104.783 52.0381 103.401 45.6006 102.255C30.7038 99.6034 24.9299 99.8576 14.0137 103.646C8.36588 105.606 3.9986 105.953 0.975614 104.678C-0.194375 104.185 -0.216383 104.147 0.406278 103.699C4.25277 100.93 5.95121 99.0257 7.65432 95.575C10.0809 90.6584 10.8383 86.1469 11.2686 74.034C11.8919 56.4824 12.982 50.0155 16.6123 42.3406C18.897 37.511 20.7263 34.7464 23.9151 31.3074C31.5845 23.0357 43.4121 17.7526 57.4258 16.3396C59.0294 16.1777 60.9476 16.0257 61.6875 16.0017ZM81.5987 54.7478C80.732 54.4146 79.7522 54.8652 79.4102 55.7547C77.4123 60.9497 71.9318 63.5348 67.2559 61.7371C66.3893 61.4039 65.4095 61.8547 65.0674 62.7439C64.7255 63.6332 65.1503 64.6244 66.0166 64.9578C70.6925 66.756 73.03 72.3474 71.0323 77.5428C70.6904 78.4321 71.115 79.4233 71.9815 79.7566C72.8479 80.0896 73.8278 79.6388 74.17 78.7498C76.1678 73.5543 81.6491 70.9692 86.3252 72.7674C87.1916 73.1 88.1718 72.6486 88.5137 71.7595C88.8554 70.8703 88.4297 69.879 87.5635 69.5457C82.8875 67.7476 80.5513 62.1571 82.5489 56.9617C82.8908 56.0724 82.465 55.0813 81.5987 54.7478ZM50.2393 63.6365C47.4648 63.6366 45.216 65.8854 45.2158 68.6599C45.2158 71.4346 47.4647 73.6843 50.2393 73.6844C53.0139 73.6844 55.2637 71.4346 55.2637 68.6599C55.2636 65.8854 53.0139 63.6365 50.2393 63.6365ZM103.827 63.6365C101.053 63.6367 98.8037 65.8864 98.8037 68.6609C98.8038 71.4354 101.053 73.6842 103.827 73.6844C106.602 73.6844 108.852 71.4356 108.852 68.6609C108.852 65.8863 106.602 63.6365 103.827 63.6365Z" fill="url(#paint0_linear_381_600)"/>
<defs>
<linearGradient id="paint0_linear_381_600" x1="69.4706" y1="-0.00154481" x2="69.4706" y2="106.759" gradientUnits="userSpaceOnUse">
<stop stop-color="#FFD54F"/>
<stop offset="1" stop-color="#FF8400"/>
</linearGradient>
</defs>
</svg>
